<svg xmlns="http://www.w3.org/2000/svg" width="1600" height="900" viewBox="0 0 1600 900" role="img" aria-label="Placeholder photo">
  <defs>
    <linearGradient id="bg" x1="0" y1="0" x2="1" y2="1">
      <stop offset="0" stop-color="#0a2a3a"/>
      <stop offset="0.55" stop-color="#256a86"/>
      <stop offset="1" stop-color="#a9c266"/>
    </linearGradient>
    <linearGradient id="shine" x1="0" y1="0" x2="0" y2="1">
      <stop offset="0" stop-color="#ffffff" stop-opacity="0.25"/>
      <stop offset="1" stop-color="#ffffff" stop-opacity="0"/>
    </linearGradient>
    <filter id="soft" x="-10%" y="-10%" width="120%" height="120%">
      <feGaussianBlur stdDeviation="12"/>
    </filter>
  </defs>

  <rect width="1600" height="900" fill="url(#bg)"/>
  <path d="M0 640 C260 560 410 720 640 650 C900 560 1020 720 1280 630 C1450 570 1540 610 1600 640 L1600 900 L0 900 Z" fill="#ffffff" opacity="0.12"/>
  <path d="M0 700 C240 630 420 790 660 710 C930 620 1060 810 1320 690 C1470 620 1550 670 1600 690 L1600 900 L0 900 Z" fill="#ffffff" opacity="0.08"/>

  <circle cx="1220" cy="230" r="160" fill="#ffffff" opacity="0.12" filter="url(#soft)"/>
  <circle cx="1180" cy="210" r="74" fill="#ffffff" opacity="0.18"/>

  <rect x="120" y="140" width="520" height="620" rx="28" fill="#000000" opacity="0.18"/>
  <rect x="160" y="190" width="440" height="42" rx="21" fill="#ffffff" opacity="0.26"/>
  <rect x="160" y="250" width="340" height="26" rx="13" fill="#ffffff" opacity="0.2"/>
  <rect x="160" y="296" width="380" height="26" rx="13" fill="#ffffff" opacity="0.16"/>
  <rect x="160" y="342" width="300" height="26" rx="13" fill="#ffffff" opacity="0.14"/>

  <rect x="160" y="410" width="210" height="56" rx="28" fill="#f37c45" opacity="0.9"/>

  <rect x="0" y="0" width="1600" height="320" fill="url(#shine)"/>

  <g fill="#ffffff" opacity="0.35" font-family="system-ui, -apple-system, Segoe UI, Roboto, Arial" font-weight="700">
    <text x="120" y="820" font-size="28" letter-spacing="4">IMAGE PLACEHOLDER</text>
  </g>
</svg>
